<?xml version="1.0" standalone="no"?>
<!DOCTYPE svg PUBLIC "-//W3C//DTD SVG 20010904//EN"
 "http://www.w3.org/TR/2001/REC-SVG-20010904/DTD/svg10.dtd">
<svg version="1.0" xmlns="http://www.w3.org/2000/svg"
 width="700.000000pt" height="700.000000pt" viewBox="0 0 700.000000 700.000000"
 preserveAspectRatio="xMidYMid meet">
<g transform="translate(0.000000,700.000000) scale(0.100000,-0.100000)"
fill="#000000" stroke="none">
<path d="M1750 3500 l0 -3500 493 2 492 3 0 2532 c0 1392 1 2530 3 2529 2 -3
120 -454 138 -528 7 -29 10 -43 67 -263 30 -115 82 -316 115 -445 34 -129 80
-307 103 -395 22 -88 42 -167 44 -175 2 -8 22 -86 45 -173 23 -87 43 -166 45
-175 2 -10 11 -44 20 -77 29 -109 105 -402 255 -985 32 -124 86 -333 120 -465
34 -132 79 -308 101 -392 21 -84 47 -185 58 -225 24 -92 100 -390 106 -415 2
-10 14 -54 25 -98 12 -44 32 -118 44 -165 l21 -85 603 -3 602 -2 0 3500 0
3500 -492 0 -493 0 0 -2095 c0 -1152 0 -2095 -2 -2095 -3 0 -44 144 -89 315
-7 29 -9 35 -23 85 -7 25 -15 54 -17 64 -2 11 -10 40 -18 65 -13 41 -86 307
-151 551 -51 193 -118 439 -136 500 -18 62 -167 609 -174 640 -2 8 -67 247
-145 530 -153 559 -189 692 -195 718 -2 9 -14 51 -25 92 -12 41 -23 82 -26 90
-3 13 -38 141 -49 180 -17 59 -38 138 -41 154 -2 11 -10 40 -18 65 -8 25 -19
67 -26 94 l-13 47 -683 0 -684 0 0 -3500z"/>
</g>
</svg>
